<?xml version="1.0" encoding="UTF-8"?>
<svg width="1200pt" height="1200pt" version="1.1" viewBox="0 0 1200 1200"
    xmlns="http://www.w3.org/2000/svg">
    <path
        d="m386.65 1131.9 18.188 7.2109 120.41-302.21-18.266-7.2109c-53.801-21.484-98.434-61.043-126.23-111.87-27.797-50.828-37.016-109.75-26.078-166.64 10.941-56.887 41.355-108.19 86.02-145.08 44.664-36.895 100.79-57.074 158.71-57.074 57.934 0 114.05 20.18 158.72 57.074 44.664 36.895 75.078 88.195 86.02 145.08 10.938 56.891 1.7188 115.81-26.078 166.64-27.797 50.824-72.43 90.383-126.23 111.87l-18.188 7.2891 121.43 301.51 18.188-7.2109c129.23-52.414 234.96-150.08 297.44-274.76 62.477-124.68 77.434-267.83 42.066-402.73-35.363-134.89-118.62-252.3-234.23-330.29-115.61-77.992-255.65-111.23-393.98-93.504-138.32 17.727-265.46 85.203-357.67 189.82-92.207 104.62-143.17 239.23-143.38 378.68-0.34766 115.16 34.148 227.74 98.957 322.94 64.809 95.195 156.9 168.57 264.17 210.46zm211.67-1067.8c122.65-0.38281 241.69 41.449 337.14 118.47 95.453 77.016 161.5 184.53 187.05 304.49 25.551 119.96 9.0508 245.05-46.73 354.29s-147.45 195.95-259.61 245.58l-92.113-229.15c58.914-28.445 106.42-76.059 134.73-135.04 28.309-58.977 35.746-125.82 21.086-189.59-14.66-63.758-50.543-120.64-101.77-161.34-51.227-40.691-114.75-62.777-180.18-62.633-65.422 0.14453-128.86 22.508-179.9 63.426-51.047 40.918-86.68 97.961-101.06 161.79-14.379 63.824-6.6523 130.64 21.918 189.49s76.285 106.26 135.32 134.44l-91.254 229.62c-112.59-49.188-204.78-135.68-261.05-244.9-56.27-109.22-73.176-234.5-47.867-354.73 25.305-120.23 91.277-228.06 186.8-305.33 95.523-77.27 214.76-119.26 337.62-118.88z" 
        fill="#fff"
        stroke="white"
        stroke-width="15"
        />
</svg>